<svg xmlns="http://www.w3.org/2000/svg" xmlns:xlink="http://www.w3.org/1999/xlink" width="61.984" height="62" viewBox="0 0 61.984 62">
  <defs>
    <linearGradient id="linear-gradient" y1="0.5" x2="1" y2="0.5" gradientUnits="objectBoundingBox">
      <stop offset="0.176" stop-color="#54acd2"/>
      <stop offset="0.89" stop-color="#2c82c9"/>
    </linearGradient>
  </defs>
  <g id="Group_948" data-name="Group 948" transform="translate(1483.65 882.107)">
    <path id="Path_1512" data-name="Path 1512" d="M-1339.6-567.5c-1.958,0-3.916-.014-5.873.011-.426.005-.528-.114-.526-.53.009-1.546-.007-1.546,1.564-1.546.71,0,1.421-.021,2.13.009.373.016.462-.108.457-.466-.02-1.42.005-2.84-.017-4.26-.006-.373.111-.453.467-.457,1.608-.017,1.608-.029,1.608,1.565,0,1.054.017,2.109-.009,3.163-.009.376.114.459.469.454,1.42-.019,2.84-.022,4.26,0,.377.006.456-.115.453-.469-.016-2.087.006-4.174-.019-6.261-.005-.436.129-.522.536-.52,1.541.008,1.542-.006,1.542,1.5q0,3.227,0,6.455c0,1-.347,1.346-1.359,1.348Q-1336.757-567.5-1339.6-567.5Z" transform="translate(-113.9 -252.615)"/>
    <path id="Path_1513" data-name="Path 1513" d="M-1207.709-635.186c-.33-.21-.311-.333-.109-.62a5.987,5.987,0,0,0,1.079-3.574,6.184,6.184,0,0,0-.82-3.01,1.3,1.3,0,0,0-1.059-.721,6.164,6.164,0,0,0-6.435,4.106,2.565,2.565,0,0,1-.8,1.26,3.175,3.175,0,0,0-1.024,1.607.752.752,0,0,1-.536.546,4.081,4.081,0,0,0-2.8,3.914,4.084,4.084,0,0,0,2.777,3.868.8.8,0,0,1,.554.529,4.089,4.089,0,0,0,3.906,2.814,4.089,4.089,0,0,0,3.9-2.828.74.74,0,0,1,.5-.5,3.936,3.936,0,0,0,2.788-3.453A3.908,3.908,0,0,0-1207.709-635.186Zm-1.847-5.882a.384.384,0,0,1,.479.295,4.2,4.2,0,0,1-.212,3.431c-.136.272-.243.3-.437.037a4.234,4.234,0,0,0-3.115-1.641A4.194,4.194,0,0,1-1209.556-641.068Zm-.177,11.433c-.873.095-1.1.318-1.192,1.2a2.082,2.082,0,0,1-2.073,1.9,2.082,2.082,0,0,1-2.05-1.927c-.087-.832-.341-1.091-1.152-1.174a2.078,2.078,0,0,1-1.949-2.093,2.069,2.069,0,0,1,1.942-2.032c.817-.084,1.075-.343,1.159-1.167a2.069,2.069,0,0,1,2.04-1.934,2.076,2.076,0,0,1,2.085,1.957c.082.8.343,1.056,1.181,1.145a2.082,2.082,0,0,1,1.919,2.057A2.082,2.082,0,0,1-1209.733-629.635Z" transform="translate(-217.976 -197.719)"/>
    <path id="Path_1514" data-name="Path 1514" d="M-1260.384-856.479c-.315-.508-.516-1.175-.966-1.477-.27-.181-.811.409-1.247.62a.8.8,0,0,0-.167.1c-.249.21-.385.119-.529-.144-.369-.678-.751-1.349-1.159-2a.576.576,0,0,1,.045-.826,3.756,3.756,0,0,0,.92-2.61,4.131,4.131,0,0,0-4.092-4.118,4.181,4.181,0,0,0-4.17,4.126,3.984,3.984,0,0,0,4.006,4.083,1.75,1.75,0,0,1,2.021,1.26.955.955,0,0,0,.058.115c.243.429.735.9.666,1.273-.082.434-.779.582-1.221.827-.351.195-.442.336-.216.722.783,1.338.773,1.361,2.124.565.348-.2.516-.223.721.175.232.452.406,1.164.819,1.235.394.068.885-.431,1.334-.681a.906.906,0,0,1,.115-.058c.279-.106.255-.267.118-.487-.239-.381-.442-.785-.686-1.163-.158-.243-.1-.374.138-.5.4-.214.785-.441,1.172-.672C-1260.453-856.2-1260.226-856.226-1260.384-856.479Zm-7.231-4.269a2.063,2.063,0,0,1-2.064-2.04,2.114,2.114,0,0,1,2.108-2.082,2.065,2.065,0,0,1,2.013,2.094A2.024,2.024,0,0,1-1267.614-860.748Z" transform="translate(-175.336 -12.549)"/>
    <path id="Path_1515" data-name="Path 1515" d="M-1445.674-597.127c2.757-1.13,5.432-2.215,8.094-3.33.447-.187.641-.161.827.334.511,1.358.54,1.354-.788,1.9q-4.248,1.744-8.5,3.475c-1.05.428-1.691,0-1.7-1.114-.005-1.482.011-2.965-.01-4.447-.005-.37.106-.455.464-.458,1.611-.018,1.61-.03,1.61,1.559Z" transform="translate(-29.706 -232.788)"/>
    <path id="Path_1516" data-name="Path 1516" d="M-1183.278-580.672c-1.031,0-1.031,0-1.031-1.035s0-1.031,1.035-1.031,1.031,0,1.031,1.035S-1182.243-580.672-1183.278-580.672Z" transform="translate(-247.686 -247.71)"/>
    <path id="Path_1517" data-name="Path 1517" d="M-1425.393-859.15a.489.489,0,0,1-.414-.573c.025-1.14.011-2.281.009-3.422,0-1.23-.589-1.634-1.737-1.193q-4.684,1.8-9.365,3.6c-1.913.734-3.766,1.607-5.936,1.394-1.581-.155-1.581-.031-1.564,1.577,0,.355.082.482.457.467.73-.03,1.464.01,2.194-.017.36-.013.47.086.466.457q-.029,2.647,0,5.294c0,.361-.091.465-.459.464q-4.648-.022-9.3,0c-.452,0-.6-.138-.591-.591.022-1.657.028-3.314,0-4.971-.01-.519.151-.668.661-.655,1.355.033,2.711.015,4.067.007.182,0,.461.119.449-.26-.018-.577.151-1.25-.094-1.7-.173-.317-.914-.068-1.4-.1a1.974,1.974,0,0,0-.451,0c-1.007.168-1.787-.055-2.068-1.169a.229.229,0,0,0-.069-.108,1.475,1.475,0,0,1-.264-2.223,1.95,1.95,0,0,0,.212-1.127c-.005-.689.009-1.378,0-2.066a3.509,3.509,0,0,0-1.7-3.073.709.709,0,0,1-.367-.721c.011-1.2.016-2.41,0-3.615a8.774,8.774,0,0,0-8.608-8.62c-2.518-.028-5.036-.021-7.553,0a8.454,8.454,0,0,0-4.778,1.521c-1.093.745-1.089.751-.221,1.687a2.311,2.311,0,0,1,.258.289c.216.332.4.3.7.054a6.229,6.229,0,0,1,3.969-1.478c2.56-.031,5.122-.043,7.682,0a6.667,6.667,0,0,1,6.254,4.973,13.779,13.779,0,0,1,.228,3.591c0,.572.254,1.334-.112,1.661-.315.281-1.063.065-1.618.091a2.8,2.8,0,0,1-2.749-1.552c-.583-1.027-1.194-2.038-1.824-3.037a1.019,1.019,0,0,0-1.831-.025c-.074.105-.144.214-.215.321a9.087,9.087,0,0,1-6.582,4.183,52.676,52.676,0,0,1-5.416.112c-.351.012-.306-.2-.306-.412q0-1.679,0-3.357a7.534,7.534,0,0,1,.313-1.9c.121-.463.648-.942.425-1.316s-.839-.549-1.282-.81a.575.575,0,0,1-.052-.038c-.226-.171-.343-.1-.469.147a8.524,8.524,0,0,0-.874,2.612,36.346,36.346,0,0,0-.12,4.9.772.772,0,0,1-.4.767,3.355,3.355,0,0,0-1.572,2.261,15.908,15.908,0,0,0-.1,2.7,3.38,3.38,0,0,0,.583,2.074.433.433,0,0,1-.026.647,6.017,6.017,0,0,0-1.22,6.192.479.479,0,0,1-.177.638c-3.342,2.73-4.169,6.469-2.323,10.456.1.219.136.356-.047.557a3.829,3.829,0,0,0-.929,2.732q.019,9.619.007,19.239c0,1.192.3,1.491,1.474,1.491h18.916c1.3,0,1.265,0,1.318-1.281.026-.63-.115-.815-.783-.8-2.768.046-5.536.019-8.3.019l-.012-.116q10.542-4.461,21.081-8.928a3.176,3.176,0,0,1,1.306-.259c1.592.015,3.185.027,4.777,0a3.663,3.663,0,0,0,3.6-3.578c.031-1.4.027-2.8,0-4.2a3.662,3.662,0,0,0-2.594-3.411,11.814,11.814,0,0,0-1.344-.235q.79-2.93,1.577-5.847c.038-.141.047-.3.267-.285a8.137,8.137,0,0,1,2.48.209c4.114,1.608,8.241,3.183,12.365,4.766,1.1.424,1.716.011,1.719-1.158,0-1.14.014-2.281-.007-3.422-.006-.344.065-.511.43-.627a5.11,5.11,0,0,0,3.707-4.944A5.13,5.13,0,0,0-1425.393-859.15ZM-1448.5-848.9c0-.167.192-.128.313-.128,1.03,0,2.061.008,3.091-.007.3,0,.384.086.307.368q-.789,2.9-1.572,5.8a5.908,5.908,0,0,0-1.971-3.085c-.05-.04-.127-.084-.133-.134A20.975,20.975,0,0,1-1448.5-848.9Zm-6.9-18.747c1.823-.055,2.905-.01,2.744,2.565a.514.514,0,0,0,0,.064c.168,2.624-1.009,2.591-2.761,2.551-.3-.007-.347-.123-.342-.38.013-.75,0-1.5,0-2.252,0-.729.013-1.459-.006-2.187C-1455.767-867.565-1455.678-867.634-1455.4-867.642Zm-.37,7.948c-.015-.589.142-.771.727-.723a4.152,4.152,0,0,0,1.6-.087.484.484,0,0,1,.511.186,4.048,4.048,0,0,1,.8,1.059,2.522,2.522,0,0,0-1.57,2.614c.034,1.676.006,3.354.009,5.031a2.322,2.322,0,0,0,2.548,2.56c.45,0,.634.106.552.56a1.5,1.5,0,0,0,0,.258c0,.387.126.847-.039,1.142-.2.354-.694.05-1.056.115-.2.036-.437.06-.526.2-.345.557-.711.291-1.115.1-1.493-.7-2.971-1.444-4.5-2.05a1.577,1.577,0,0,1-1-1.089c-.458-1.292-.943-2.575-1.441-3.853-.118-.3-.082-.447.224-.58.471-.205.919-.461,1.379-.692A4.842,4.842,0,0,0-1455.768-859.695Zm-4.6,12.768a6.773,6.773,0,0,1-4.736,1.9,6.819,6.819,0,0,1-4.6-1.858.636.636,0,0,1-.18-.831c.633-1.616,1.249-3.24,1.826-4.877.156-.443.3-.519.7-.282a3.876,3.876,0,0,0,3.255.585,9.92,9.92,0,0,0,1.466-.65c.263-.135.393-.151.51.169q.953,2.6,1.943,5.177A.536.536,0,0,1-1460.364-846.927Zm-11.351-20.716a11.49,11.49,0,0,0,8.656-3.147c.36-.338.685-.712,1.061-1.1.407.673.783,1.3,1.161,1.922a4.55,4.55,0,0,0,2.6,2.09.5.5,0,0,1,.425.574c-.017,2.625,0,5.251-.015,7.876a2.669,2.669,0,0,1-1.471,2.479c-1.667.884-3.361,1.718-5.046,2.57a1.567,1.567,0,0,1-1.485-.025c-1.611-.809-3.231-1.6-4.834-2.421a2.835,2.835,0,0,1-1.621-2.72c.006-2.518.016-5.036-.011-7.554C-1472.3-867.58-1472.143-867.659-1471.715-867.643Zm-5.731,2.576c0-.021,0-.043,0-.064,0-2.172.632-2.727,2.8-2.516.343.033.3.208.3.42q0,1.094,0,2.187c0,.729-.016,1.459.007,2.187.01.318-.1.43-.4.382a.312.312,0,0,0-.064,0C-1476.834-862.354-1477.6-862.776-1477.446-865.066Zm-1.106,11.749c1.048-.643,1.146-.953.576-2.022a4.142,4.142,0,0,1,.7-4.882.73.73,0,0,1,.793-.249,4.422,4.422,0,0,0,1.09.064c1.039.007,1.028,0,1.053,1.019a4.822,4.822,0,0,0,2.7,4.377c.527.286,1.066.555,1.614.8.28.125.311.261.206.535-.57,1.481-1.145,2.96-1.665,4.459-.145.419-.484.309-.73.428-1.177.571-2.369,1.11-3.556,1.659-1.5.693-3,1.375-4.5,2.082-.342.162-.51.141-.676-.232a7.065,7.065,0,0,1-.63-2.959A6.075,6.075,0,0,1-1478.552-853.317Zm21.275,22.959q-9.445,4-18.893,7.99a1.7,1.7,0,0,1-.61.176c-1.484.015-2.969-.007-4.453.017-.447.007-.343-.268-.344-.5q0-3.969,0-7.938c0-3.42.013-6.841-.009-10.262a1.817,1.817,0,0,1,1.19-1.855q3.868-1.748,7.7-3.567a.614.614,0,0,1,.855.188,8.859,8.859,0,0,0,7.059,3.143,8.81,8.81,0,0,0,6.486-3.119.669.669,0,0,1,.964-.166c1.407.684,2.831,1.335,4.263,1.968.332.146.47.321.416.669a2.553,2.553,0,0,0,0,.387c0,2.465-.005,2.461-1.493,4.432a1.561,1.561,0,0,1-.727.491c-3,1.223-5.987,2.458-8.987,3.673-.389.157-.628.276-.344.745.252.417.248,1.141.629,1.274.354.123.9-.265,1.346-.448,2.56-1.044,5.125-2.079,7.671-3.156a.66.66,0,0,1,.941.267c.769,1.007,1.575,1.987,2.4,3.016C-1453.262-832.068-1455.268-831.208-1457.277-830.358Zm13.187-10.417a1.635,1.635,0,0,1,1.763,1.775q.016,1.839,0,3.679a1.634,1.634,0,0,1-1.766,1.772c-1.506.011-3.012,0-4.518.009a.782.782,0,0,1-.709-.321q-1.389-1.779-2.823-3.523a.444.444,0,0,1,.016-.7,5.653,5.653,0,0,0,1.549-4.948,15.251,15.251,0,0,1-.01-1.723,2.766,2.766,0,0,1,2.07,2.607c.016,1.076.334,1.37,1.4,1.372C-1446.113-840.776-1445.1-840.786-1444.09-840.775Zm12.086-7.24-2.571-.984c-1.4-.536-2.8-1.08-4.209-1.6a.571.571,0,0,1-.453-.639c.023-1.979.01-3.959.013-5.939,0-.221-.061-.436.266-.559,2.3-.868,4.6-1.763,6.954-2.671Zm4.116,1.586c-.615-.235-1.185-.471-1.769-.666-.281-.094-.274-.279-.274-.5q0-6.608,0-13.216c0-.22-.011-.408.271-.5.584-.2,1.155-.431,1.771-.665Zm2.46-5.016c-.371.21-.375,0-.373-.279.007-.837,0-1.674,0-2.511s.008-1.674,0-2.511c-.005-.326.1-.377.37-.223a3.026,3.026,0,0,1,1.688,2.76A3.029,3.029,0,0,1-1425.428-851.446Z"/>
    <g id="Group_947" data-name="Group 947" transform="translate(-1483.65 -882.107)">
      <path id="Path_1518" data-name="Path 1518" d="M-1393.709-749.669a3.227,3.227,0,0,0,3.6,1.7,2.8,2.8,0,0,0,2.4-2.112c.023-.137.154-.427-.117-.394-.713.086-1.466-.294-2.149.257a1.172,1.172,0,0,1-1.5.037,1.8,1.8,0,0,0-1.255-.313h-.437C-1393.949-750.49-1394-750.416-1393.709-749.669Z" transform="translate(1409.364 773.227)" fill="url(#linear-gradient)"/>
      <path id="Path_1519" data-name="Path 1519" d="M-1404.831-784.2c1.1,0,1.1,0,1.1-1.092,0-.974,0-.974-.963-.974-1.1,0-1.1,0-1.1,1.092C-1405.794-784.2-1405.794-784.2-1404.831-784.2Z" transform="translate(1419.229 802.805)" fill="url(#linear-gradient)"/>
      <path id="Path_1520" data-name="Path 1520" d="M-1356.9-784.2c1.06,0,1.06,0,1.06-1.071,0-1,0-1-1.007-1-1.059,0-1.059,0-1.059,1.071C-1357.906-784.2-1357.906-784.2-1356.9-784.2Z" transform="translate(1379.605 802.805)" fill="url(#linear-gradient)"/>
      <path id="Path_1521" data-name="Path 1521" d="M-1425.393-859.15a.489.489,0,0,1-.414-.573c.025-1.14.011-2.281.009-3.422,0-1.23-.589-1.634-1.737-1.193q-4.684,1.8-9.365,3.6c-1.913.734-3.766,1.607-5.936,1.394-1.581-.155-1.581-.031-1.564,1.577,0,.355.082.482.457.467.73-.03,1.464.01,2.194-.017.36-.013.47.086.466.457q-.029,2.647,0,5.294c0,.361-.091.465-.459.464q-4.648-.022-9.3,0c-.452,0-.6-.138-.591-.591.022-1.657.028-3.314,0-4.971-.01-.519.151-.668.661-.655,1.355.033,2.711.015,4.067.007.182,0,.461.119.449-.26-.018-.577.151-1.25-.094-1.7-.173-.317-.914-.068-1.4-.1a1.974,1.974,0,0,0-.451,0c-1.007.168-1.787-.055-2.068-1.169a.229.229,0,0,0-.069-.108,1.475,1.475,0,0,1-.264-2.223,1.95,1.95,0,0,0,.212-1.127c-.005-.689.009-1.378,0-2.066a3.509,3.509,0,0,0-1.7-3.073.709.709,0,0,1-.367-.721c.011-1.2.016-2.41,0-3.615a8.774,8.774,0,0,0-8.608-8.62c-2.518-.028-5.036-.021-7.553,0a8.454,8.454,0,0,0-4.778,1.521c-1.093.745-1.089.751-.221,1.687a2.311,2.311,0,0,1,.258.289c.216.332.4.3.7.054a6.229,6.229,0,0,1,3.969-1.478c2.56-.031,5.122-.043,7.682,0a6.667,6.667,0,0,1,6.254,4.973,13.779,13.779,0,0,1,.228,3.591c0,.572.254,1.334-.112,1.661-.315.281-1.063.065-1.618.091a2.8,2.8,0,0,1-2.749-1.552c-.583-1.027-1.194-2.038-1.824-3.037a1.019,1.019,0,0,0-1.831-.025c-.074.105-.144.214-.215.321a9.087,9.087,0,0,1-6.582,4.183,52.676,52.676,0,0,1-5.416.112c-.351.012-.306-.2-.306-.412q0-1.679,0-3.357a7.534,7.534,0,0,1,.313-1.9c.121-.463.648-.942.425-1.316s-.839-.549-1.282-.81a.575.575,0,0,1-.052-.038c-.226-.171-.343-.1-.469.147a8.524,8.524,0,0,0-.874,2.612,36.346,36.346,0,0,0-.12,4.9.772.772,0,0,1-.4.767,3.355,3.355,0,0,0-1.572,2.261,15.908,15.908,0,0,0-.1,2.7,3.381,3.381,0,0,0,.583,2.074.433.433,0,0,1-.026.646,6.017,6.017,0,0,0-1.22,6.192.479.479,0,0,1-.177.638c-3.342,2.73-4.169,6.469-2.323,10.456.1.219.136.356-.047.557a3.829,3.829,0,0,0-.929,2.732q.019,9.619.007,19.239c0,1.192.3,1.491,1.474,1.491h18.916c1.3,0,1.265,0,1.318-1.281.026-.63-.115-.815-.783-.8-2.767.046-5.536.019-8.3.019l-.012-.116q10.542-4.461,21.081-8.928a3.176,3.176,0,0,1,1.306-.259c1.592.015,3.185.027,4.777,0a3.663,3.663,0,0,0,3.6-3.578c.031-1.4.027-2.8,0-4.2a3.662,3.662,0,0,0-2.594-3.411,11.814,11.814,0,0,0-1.344-.235q.79-2.93,1.577-5.847c.038-.141.047-.3.267-.285a8.137,8.137,0,0,1,2.48.209c4.114,1.608,8.241,3.183,12.365,4.766,1.1.424,1.716.011,1.719-1.158,0-1.14.014-2.281-.007-3.422-.006-.344.065-.511.43-.627a5.11,5.11,0,0,0,3.707-4.944A5.13,5.13,0,0,0-1425.393-859.15ZM-1448.5-848.9c0-.167.192-.128.313-.128,1.03,0,2.061.008,3.091-.007.3,0,.384.086.307.368q-.789,2.9-1.572,5.8a5.908,5.908,0,0,0-1.971-3.085c-.05-.04-.127-.084-.133-.134A20.975,20.975,0,0,1-1448.5-848.9Zm-6.9-18.747c1.823-.055,2.905-.01,2.744,2.565a.514.514,0,0,0,0,.064c.168,2.624-1.009,2.591-2.761,2.551-.3-.007-.347-.123-.342-.38.013-.75,0-1.5,0-2.252,0-.729.013-1.459-.006-2.187C-1455.767-867.565-1455.678-867.634-1455.4-867.642Zm-.37,7.948c-.015-.589.142-.771.727-.723a4.152,4.152,0,0,0,1.6-.087.484.484,0,0,1,.511.186,4.048,4.048,0,0,1,.8,1.059,2.522,2.522,0,0,0-1.57,2.614c.034,1.676.006,3.354.009,5.031a2.322,2.322,0,0,0,2.548,2.56c.45,0,.634.106.552.56a1.5,1.5,0,0,0,0,.258c0,.387.126.847-.039,1.142-.2.354-.694.05-1.056.115-.2.036-.437.06-.526.2-.345.557-.711.291-1.115.1-1.493-.7-2.971-1.444-4.5-2.05a1.577,1.577,0,0,1-1-1.089c-.458-1.292-.943-2.575-1.441-3.853-.118-.3-.082-.447.224-.58.471-.205.919-.461,1.379-.692A4.841,4.841,0,0,0-1455.768-859.695Zm-4.6,12.768a6.773,6.773,0,0,1-4.736,1.9,6.819,6.819,0,0,1-4.6-1.858.636.636,0,0,1-.18-.831c.633-1.616,1.249-3.24,1.826-4.877.156-.443.3-.519.7-.282a3.876,3.876,0,0,0,3.255.585,9.92,9.92,0,0,0,1.466-.65c.263-.135.393-.151.51.169q.953,2.6,1.943,5.177A.536.536,0,0,1-1460.364-846.927Zm-11.351-20.716a11.49,11.49,0,0,0,8.656-3.147c.36-.338.685-.712,1.061-1.1.407.673.783,1.3,1.161,1.922a4.55,4.55,0,0,0,2.6,2.09.5.5,0,0,1,.425.574c-.017,2.625,0,5.251-.015,7.876a2.669,2.669,0,0,1-1.471,2.479c-1.667.884-3.361,1.718-5.046,2.57a1.567,1.567,0,0,1-1.485-.025c-1.611-.809-3.231-1.6-4.834-2.421a2.835,2.835,0,0,1-1.621-2.72c.006-2.518.016-5.036-.011-7.554C-1472.3-867.58-1472.143-867.659-1471.715-867.643Zm-5.731,2.576c0-.021,0-.043,0-.064,0-2.172.632-2.727,2.8-2.516.343.033.3.208.3.42q0,1.094,0,2.187c0,.729-.016,1.459.007,2.187.01.318-.1.43-.4.382a.312.312,0,0,0-.064,0C-1476.834-862.354-1477.6-862.776-1477.446-865.066Zm-1.106,11.749c1.048-.643,1.146-.953.576-2.022a4.142,4.142,0,0,1,.7-4.882.73.73,0,0,1,.793-.249,4.422,4.422,0,0,0,1.09.064c1.039.007,1.028,0,1.053,1.019a4.822,4.822,0,0,0,2.7,4.377c.527.286,1.066.555,1.614.8.28.125.311.261.206.535-.57,1.481-1.145,2.96-1.665,4.459-.145.419-.484.309-.73.428-1.177.571-2.369,1.11-3.556,1.659-1.5.693-3,1.375-4.5,2.082-.342.162-.51.141-.676-.232a7.065,7.065,0,0,1-.63-2.959A6.075,6.075,0,0,1-1478.552-853.317Zm21.275,22.959q-9.445,4-18.893,7.99a1.7,1.7,0,0,1-.61.176c-1.484.015-2.969-.007-4.453.018-.447.007-.343-.268-.344-.5q0-3.969,0-7.938c0-3.42.013-6.841-.009-10.262a1.817,1.817,0,0,1,1.19-1.855q3.868-1.748,7.7-3.567a.614.614,0,0,1,.855.188,8.859,8.859,0,0,0,7.059,3.143,8.81,8.81,0,0,0,6.486-3.119.669.669,0,0,1,.964-.166c1.407.684,2.831,1.335,4.263,1.968.332.146.47.321.416.669a2.555,2.555,0,0,0,0,.387c0,2.464-.005,2.461-1.493,4.432a1.561,1.561,0,0,1-.727.491c-3,1.223-5.987,2.458-8.987,3.673-.389.157-.628.276-.344.745.252.417.248,1.141.629,1.274.354.123.9-.265,1.346-.448,2.56-1.044,5.125-2.079,7.671-3.156a.66.66,0,0,1,.941.267c.769,1.007,1.575,1.987,2.4,3.016C-1453.262-832.068-1455.268-831.208-1457.277-830.358Zm13.187-10.417a1.635,1.635,0,0,1,1.763,1.775q.016,1.839,0,3.679a1.634,1.634,0,0,1-1.766,1.772c-1.506.011-3.012,0-4.518.009a.782.782,0,0,1-.709-.321q-1.389-1.779-2.823-3.523a.444.444,0,0,1,.016-.7,5.653,5.653,0,0,0,1.549-4.948,15.251,15.251,0,0,1-.01-1.723,2.766,2.766,0,0,1,2.07,2.607c.016,1.076.334,1.37,1.4,1.372C-1446.113-840.776-1445.1-840.786-1444.09-840.775Zm12.086-7.24-2.571-.984c-1.4-.536-2.8-1.08-4.209-1.6a.571.571,0,0,1-.453-.639c.023-1.979.01-3.959.013-5.939,0-.221-.061-.436.266-.559,2.3-.868,4.6-1.763,6.954-2.671Zm4.116,1.586c-.615-.235-1.185-.471-1.769-.666-.281-.094-.274-.279-.274-.5q0-6.608,0-13.216c0-.22-.011-.408.271-.5.584-.2,1.155-.431,1.771-.665Zm2.46-5.016c-.371.21-.375,0-.373-.279.007-.837,0-1.674,0-2.511s.008-1.674,0-2.511c-.005-.326.1-.377.37-.223a3.026,3.026,0,0,1,1.688,2.76A3.029,3.029,0,0,1-1425.428-851.446Z" transform="translate(1483.65 882.107)" fill="url(#linear-gradient)"/>
    </g>
    <path id="Path_1522" data-name="Path 1522" d="M-1299.229-758.444a11.848,11.848,0,0,0-1.344-.235q.79-2.93,1.576-5.847c.038-.141.047-.3.267-.285a8.131,8.131,0,0,1,2.48.209c4.114,1.608,8.241,3.183,12.365,4.766,1.1.424,1.716.011,1.719-1.158,0-1.141.014-2.281-.007-3.422-.006-.344.065-.511.431-.627a5.11,5.11,0,0,0,3.707-4.944,5.13,5.13,0,0,0-3.726-4.934.489.489,0,0,1-.414-.573c.025-1.14.011-2.281.009-3.422,0-1.23-.589-1.634-1.737-1.193q-4.683,1.8-9.365,3.6c-1.913.734-3.766,1.606-5.936,1.394-1.581-.155-1.581-.03-1.564,1.577,0,.355.082.483.457.467.73-.03,1.464.01,2.194-.017.36-.013.47.086.466.457q-.029,2.646,0,5.294c0,.361-.091.465-.459.464q-4.648-.022-9.3,0c-.452,0-.6-.138-.592-.591.022-1.657.028-3.314,0-4.971-.01-.519.151-.668.661-.655,1.355.033,2.711.015,4.067.007.183,0,.462.119.45-.26-.018-.577.151-1.25-.094-1.7-.173-.317-.914-.067-1.4-.1a1.973,1.973,0,0,0-.451,0c-1.008.168-2.693-.137-3.726.108a2.522,2.522,0,0,0-1.57,2.614c.034,1.676.006,3.354.009,5.031a2.322,2.322,0,0,0,2.548,2.56c.45,0,.634.106.552.56a1.51,1.51,0,0,0,0,.258,3.508,3.508,0,0,1-.24,1.338,36.879,36.879,0,0,0,1.976,3.436C-1303.7-756.874-1298.652-758.275-1299.229-758.444Zm-5.64-6.221c0-.167.192-.128.313-.128,1.03,0,2.061.008,3.091-.007.3,0,.384.086.307.368q-.789,2.9-1.572,5.8a5.908,5.908,0,0,0-1.971-3.085c-.05-.039-.127-.084-.133-.134A20.972,20.972,0,0,1-1304.869-764.665Zm16.5.88-2.571-.984c-1.4-.536-2.8-1.079-4.209-1.6a.571.571,0,0,1-.453-.639c.023-1.979.01-3.959.013-5.939,0-.221-.061-.436.266-.559,2.3-.868,4.6-1.763,6.954-2.671Zm4.116,1.586c-.615-.235-1.185-.471-1.769-.666-.281-.094-.274-.279-.274-.5q0-6.608,0-13.216c0-.22-.011-.408.271-.5.584-.2,1.155-.431,1.771-.665Zm2.46-5.016c-.371.21-.375,0-.373-.279.007-.837,0-1.674,0-2.511s.008-1.674,0-2.511c0-.326.1-.377.37-.223a3.026,3.026,0,0,1,1.688,2.76A3.028,3.028,0,0,1-1281.794-767.216Z" transform="translate(-143.632 -84.256)"/>
  </g>
</svg>
